
<svg id="Layer_1" data-name="Layer 1" xmlns="http://www.w3.org/2000/svg" xmlns:xlink="http://www.w3.org/1999/xlink" viewBox="0 0 727.27 163.26"><defs><style>.cls-1{fill:#2a0c4a;}.cls-2{clip-path:url(#clip-path);}.cls-3{opacity:0.67;}.cls-4{fill:#aa72e8;}.cls-5{fill:url(#linear-gradient);}</style><clipPath id="clip-path"><rect class="cls-1" x="-863.5" y="-28.89" width="786.77" height="219" rx="39.86"/></clipPath><linearGradient id="linear-gradient" x1="9.59" y1="186.75" x2="693.44" y2="-35.45" gradientUnits="userSpaceOnUse"><stop offset="0" stop-color="#2a0c4a"/><stop offset="0.49" stop-color="#2a0c4a"/><stop offset="0.59" stop-color="#aa72e8"/></linearGradient></defs><rect class="cls-1" x="-863.5" y="-28.89" width="786.77" height="219" rx="39.86"/><g class="cls-2"><g class="cls-3"><path class="cls-4" d="M282.6-137.72c1.34-7.23,3.71-9.61,10.92-11l-.17,0c5.26.52,8.9,3.26,10.54,7.7l8.37-8.43c-5-1.4-7.22-5.27-7.92-10.35v.18c1.34-7.23,3.71-9.62,10.92-11h-.17c5.26.51,8.9,3.25,10.54,7.7L334-171.4c-4.95-1.39-7.22-5.27-7.92-10.34l0,.18c1.33-7.23,3.7-9.62,10.92-11h-.18c5.26.51,8.91,3.25,10.54,7.7l8.37-8.44c-4.95-1.39-7.22-5.27-7.92-10.34l0,.18c1.33-7.24,3.73-9.65,10.93-11h-.17c5.15.56,8.89,3,10.47,7.77l8.4-8.46a10.77,10.77,0,0,1-7.57-9.45l70.89,70.34-6.71,4.59a8.42,8.42,0,0,1-1.42,3q-8,8.35-16.31,16.44c-1,.94-2.49,1.31-3.91,2-.29.78-.44,2.33-1.28,3.21q-8.28,8.64-16.85,17c-.87.85-2.39,1-3.26,1.39-.75,1.44-1.18,3-2.19,4.11q-7.74,8.09-15.77,15.9c-1.05,1-2.61,1.52-4,2.27-.58,1.11-1,2.71-2,3.77q-7.74,8.09-15.76,15.89c-1,1-2.59,1.5-4,2.29-.45,1-.77,2.51-1.7,3.48q-8,8.35-16.31,16.44c-1,.94-2.51,1.28-3.5,1.76-.74,1.37-1.21,3-2.23,4q-7.74,8.09-15.77,15.9c-1.05,1-2.64,1.49-3.79,2.11-.71,1.3-1.19,2.87-2.2,3.93Q294.06-6.7,286.05,1.11c-1.05,1-2.65,1.48-3.74,2.06-.75,1.36-1.24,2.93-2.26,4q-7.76,8.07-15.77,15.89c-1,1-2.62,1.44-3.88,2.1-.57,1.16-.91,2.7-1.85,3.67q-8,8.35-16.31,16.44c-.87.86-2.31,1.15-3.49,1.7-.72,1.29-1.32,3.1-2.51,4.34-5.15,5.41-10.42,10.69-15.76,15.9-.88.85-2.32,1.13-3.64,1.74-.55,1.09-1,2.87-2.1,4-5.14,5.41-10.42,10.69-15.76,15.9-1,.94-2.45,1.35-4,2.13-.5,1-1,2.76-2,3.91-5.15,5.41-10.42,10.69-15.76,15.9-1,.94-2.46,1.34-3.94,2.1-.52,1-1,2.78-2.07,3.94-5.14,5.4-10.42,10.69-15.76,15.9-1,.94-2.47,1.33-4,2.12-.39.87-.72,2.58-1.73,3.64-5.23,5.5-10.59,10.87-16,16.17-1,.94-2.47,1.33-4,2.1-.42.91-.75,2.61-1.76,3.67q-7.86,8.24-16,16.17c-1,.94-2.48,1.32-3.93,2.06-.45,1-.8,2.64-1.81,3.7q-7.86,8.25-16,16.18c-1,.94-2.48,1.32-3.88,2-.48,1-.84,2.68-1.85,3.74q-7.86,8.24-16,16.17c-1,1-2.48,1.32-3.83,2-.51,1.05-.89,2.71-1.9,3.77-5.24,5.49,22.48,19.18,17,24.49-.94.91,35.05,10.92,33.63,11.63-.42.94,11.1,3.78,10.17,4.75-5.34,5.58-33.42,10.42-38.94,15.81-1,.94-16.43,20.47-17.75,21.13-.44,1-.72,2.56-1.65,3.53Q57.14,316,48.84,324C47.88,325,.59,287.6-.6,288.19c-.61,1.2-1,2.82-2,3.88q-7.86,8.22-16,16.16c-1,.94-2.5,1.3-3.63,1.86-.65,1.25-1.09,2.86-2.1,3.91q-7.74,8.08-15.77,15.9c-1,1-2.61,1.52-3.94,2.26-.59,1.12-1,2.72-2.06,3.78q-7.74,8.08-15.76,15.9c-1,1-2.59,1.49-4,2.27-.46,1-.78,2.52-1.71,3.49Q-75.69,366-84,374c-1,.94-2.51,1.28-3.48,1.75-.75,1.39-1.22,3-2.24,4q-7.74,8.07-15.77,15.89c-1,1-2.6,1.46-3.77,2.09-.72,1.32-1.21,2.9-2.22,4q-7.75,8.07-15.77,15.88c-1,1-2.66,1.48-3.91,2.14-.55,1.13-.89,2.66-1.82,3.64q-7.89,8.2-16,16.16c-1.05,1-2.67,1.46-3.87,2.09-.58,1.18-.92,2.71-1.86,3.68q-8,8.36-16.31,16.44c-.88.86-2.31,1.15-3.48,1.69-.73,1.31-1.33,3.11-2.52,4.36q-7.72,8.1-15.77,15.89c-.86.84-2.28,1.11-3.63,1.73-.55,1.11-1,2.88-2.1,4-5.14,5.4-10.42,10.69-15.76,15.9-1,.94-2.45,1.34-3.95,2.12-.5,1-1,2.76-2.06,3.91-5.14,5.41-10.41,10.69-15.75,15.9-1,.94-2.47,1.34-3.94,2.1-.52,1-1,2.79-2.07,3.94-5.14,5.41-10.42,10.69-15.76,15.9-1,.93-2.43,1.31-4,2.12-.4.87-.73,2.58-1.74,3.64-5.23,5.5-10.6,10.88-16,16.18-1,.94-2.47,1.32-3.95,2.08-.43.92-.77,2.62-1.78,3.68-5.24,5.5-10.6,10.87-16,16.17-1,1-2.47,1.33-3.91,2.05-.45,1-.81,2.66-1.82,3.72q-7.86,8.24-16,16.17c-.94.92-2.43,1.29-3.87,2-.48,1-.85,2.69-1.86,3.75q-7.86,8.24-16,16.17c-1,.94-2.48,1.31-3.81,2-.52,1.07-.91,2.73-1.92,3.78q-7.86,8.24-16,16.17c-1,.95-2.48,1.31-3.82,2-.43.95-.71,2.54-1.64,3.51q-8,8.35-16.3,16.44c-1,.94-2.49,1.31-4.07,2.09-.15.54-.13,2-.86,2.85-3.2,3.49-6.62,6.79-10.14,10.34l-10.07-10,2.32-3.2-2-2.79-3.53,2.8-17.28-17.15,4-4-5.15-5.69-3.93,4.49-16.16-16,5.13-4.31-7-7.6-4.33,5.9-15-14.88c1.77-3.71,5.25-4.48,8.78-5.16l-.17,0c5.26.52,8.9,3.26,10.54,7.7l8.32-8.39c-4.82-1.5-7.21-5.28-7.87-10.38l0,.17c1.33-7.23,3.7-9.61,10.92-11l-.18,0c5.26.51,8.91,3.26,10.54,7.7l8.33-8.39c-4.83-1.5-7.21-5.29-7.88-10.39l0,.18c1.33-7.23,3.7-9.62,10.92-11h-.18c5.26.51,8.91,3.25,10.55,7.7l8.32-8.39c-4.83-1.5-7.21-5.29-7.88-10.39l0,.18c1.34-7.23,3.7-9.62,10.92-11h-.17c5.26.51,8.9,3.25,10.54,7.69l8.32-8.38c-4.83-1.51-7.21-5.29-7.87-10.39v.17c1.34-7.23,3.71-9.61,10.92-11l-.17,0c5.26.52,8.9,3.26,10.54,7.7l8.32-8.39c-4.82-1.5-7.21-5.29-7.87-10.38V520c1.34-7.23,3.71-9.61,10.92-11h-.17c5.26.51,8.9,3.25,10.54,7.7l8.32-8.39c-4.82-1.5-7.21-5.29-7.87-10.39l0,.18c1.33-7.23,3.7-9.62,10.92-11h-.18c5.26.51,8.91,3.25,10.54,7.7l8.33-8.39c-4.83-1.5-7.21-5.29-7.88-10.39l0,.18c1.33-7.23,3.7-9.62,10.92-11h-.18c5.26.51,8.91,3.25,10.54,7.69l8.33-8.38c-4.83-1.51-7.21-5.29-7.88-10.39l0,.17c1.33-7.23,3.7-9.61,10.92-11l-.18,0c5.26.52,8.91,3.26,10.55,7.7l8.32-8.39c-4.83-1.5-7.21-5.29-7.87-10.38v.17c1.34-7.23,3.7-9.61,10.92-11h-.17c5.26.51,8.9,3.25,10.54,7.7l8.32-8.39c-4.82-1.5-7.21-5.29-7.87-10.39v.18c1.34-7.23,3.71-9.62,10.92-11h-.17c5.26.51,8.9,3.25,10.54,7.7l8.32-8.39c-4.82-1.5-7.21-5.29-7.87-10.39l0,.18c1.33-7.23,3.7-9.62,10.92-11h-.18c5.26.51,8.91,3.25,10.54,7.69l8.33-8.38c-4.83-1.51-7.21-5.29-7.88-10.39l0,.17c1.33-7.23,3.7-9.61,10.92-11l-.18,0c5.26.52,8.91,3.26,10.54,7.7l8.33-8.39c-4.83-1.5-7.21-5.29-7.88-10.39l0,.18c1.33-7.23,3.7-9.61,10.92-11h-.18c5.26.51,8.91,3.25,10.55,7.7l8.32-8.39c-4.83-1.5-7.21-5.29-7.87-10.39v.18c1.34-7.23,3.7-9.62,10.92-11h-.17c5.26.51,8.9,3.25,10.54,7.7l8.32-8.39c-4.82-1.51-7.21-5.29-7.87-10.39v.18c1.34-7.23,3.71-9.62,10.92-11l-.17,0c5.26.52,8.9,3.26,10.54,7.7l8.32-8.38c-4.82-1.51-7.21-5.29-7.87-10.39l0,.17c1.33-7.23,3.7-9.61,10.92-11l-.18,0c5.26.52,8.9,3.26,10.54,7.7l8.33-8.39c-4.83-1.5-7.22-5.29-7.88-10.39l0,.18c1.33-7.23,3.7-9.62,10.92-11h-.18c5.26.51,8.91,3.25,10.54,7.7l8.33-8.39c-4.83-1.5-7.21-5.29-7.88-10.39l0,.18c1.33-7.23,3.7-9.62,10.92-11h-.18c5.26.51,8.91,3.25,10.55,7.7l8.32-8.39c-4.83-1.51-7.21-5.29-7.87-10.39V213c1.34-7.22,3.7-9.61,10.92-11l-.17,0c5.26.52,8.9,3.26,10.54,7.7l8.32-8.39c-4.83-1.5-7.21-5.28-7.87-10.38v.17c1.34-7.23,3.71-9.61,10.92-11l-.17,0c5.26.52,8.9,3.26,10.54,7.7l8.32-8.39c-4.82-1.5-7.21-5.29-7.87-10.39v.18c1.34-7.23,3.71-9.62,10.93-11h-.18c5.26.51,8.9,3.25,10.54,7.7l8.32-8.39C2.86,156,.47,152.2-.19,147.1l0,.18c1.33-7.23,3.7-9.62,10.92-11h-.18c5.26.51,8.91,3.25,10.54,7.7l8.33-8.39c-4.83-1.51-7.21-5.29-7.88-10.39l0,.17c1.33-7.22,3.7-9.61,10.92-11l-.18,0c5.26.52,8.91,3.26,10.55,7.7l8.32-8.39c-4.83-1.5-7.21-5.28-7.87-10.38v.17c1.34-7.23,3.7-9.61,10.92-11l-.17,0c5.26.52,8.9,3.26,10.54,7.7L73,91.67c-5-1.39-7.22-5.26-7.92-10.34v.18c1.34-7.23,3.71-9.62,10.92-11h-.17c5.26.51,8.9,3.25,10.54,7.7l8.37-8.44c-5-1.39-7.22-5.27-7.92-10.34v.18c1.34-7.23,3.71-9.62,10.92-11h-.17c5.26.51,8.9,3.25,10.54,7.7l8.37-8.44c-4.95-1.39-7.22-5.27-7.92-10.34l0,.17c1.33-7.22,3.7-9.61,10.92-11l-.18,0c5.26.52,8.91,3.26,10.54,7.7l8.37-8.43c-5-1.4-7.22-5.27-7.92-10.34l0,.17c1.33-7.23,3.7-9.61,10.92-11l-.18,0c5.26.51,8.91,3.26,10.54,7.7L160,4c-5-1.39-7.23-5.27-7.93-10.34l0,.18c1.34-7.23,3.7-9.62,10.92-11h-.17c5.25.51,8.9,3.25,10.54,7.7l8.37-8.44c-5-1.39-7.22-5.27-7.92-10.34v.18c1.34-7.23,3.71-9.62,10.92-11h-.17c5.26.51,8.9,3.25,10.54,7.69l8.37-8.43c-5-1.39-7.22-5.27-7.92-10.34V-50c1.34-7.23,3.71-9.61,10.92-11l-.17,0c5.26.52,8.9,3.26,10.54,7.7l8.37-8.43c-4.95-1.4-7.22-5.27-7.92-10.34l0,.17c1.33-7.23,3.7-9.61,10.92-11h-.18c5.26.51,8.91,3.25,10.54,7.7L247-83.71C242.05-85.1,239.78-89,239.08-94l0,.18c1.33-7.23,3.7-9.62,10.92-11h-.18c5.26.51,8.91,3.25,10.54,7.7l8.38-8.44c-5-1.39-7.23-5.27-7.93-10.34l0,.18c1.33-7.23,3.7-9.62,10.92-11h-.18c5.26.51,8.91,3.25,10.55,7.69l8.37-8.43c-5-1.4-7.22-5.27-7.92-10.34Zm-725.15,756,7.32,6.63,6.59-6.64-6.63-7.33Zm681.69-673,6.53-6.58L239-68.65l-7.3,7.36ZM-.16,186.43l6.52-6.57L-.23,172.5l-7.31,7.36ZM123,48.31l7,7,6.89-7L130.29,41Zm-319,321.5-7.27,7.33,7.31,6.64,6.58-6.63ZM-326.42,515.28l6.52-6.57-6.61-7.36-7.24,7.31ZM310.89-127.06l-6.58-7.36L297-127l7.36,6.57ZM-80.64,267.55l-6.6-7.35-7.3,7.36,7.39,6.56ZM65.12,120.67l6.52-6.58L65,106.75l-7.25,7.31ZM-152.4,339.86l6.49-6.55-6.57-7.36-7.33,7.39Zm427.65-445,7,7,6.9-7-6.62-7.36ZM-341.6,530.59l-6.68-7.29-7.27,7.32,7.38,6.59ZM318.75-149l7.38,6.56,6.52-6.57c-2.29-2.55-4.67-5.19-6.6-7.35Zm-442.9,460.36-6.6-7.35-7.3,7.36,7.38,6.57ZM-399,574.47l7.37,6.58,6.53-6.57-6.61-7.36ZM195.48-24.74l-7.21,7.27,7,7,6.9-7ZM-239.4,427.58l6.52-6.57-6.61-7.35-7.27,7.32Zm-50.9,37.28,7,6.95,6.9-6.95-6.62-7.35ZM49.86,136l-6.57-7.37L36,136l7.34,6.59ZM-304.76,479.42l-7.31,7.36,7.38,6.57,6.54-6.59Zm239.24-241.1-7.25,7.31,7,7,6.9-7Zm435.07-438.5-7.3,7.36,7.37,6.57,6.54-6.59ZM347.9-164.35l6.53-6.59-6.63-7.33-7.3,7.36ZM158.66,26.37,152,19l-7.28,7.34L152.08,33Zm-43.5,43.87-6.62-7.35-7.28,7.33,7,7Zm102.14-117L210-39.39l7,7,6.88-6.94ZM-377.29,552.53l7,7,6.89-6.94c-2.24-2.48-4.62-5.13-6.61-7.35Zm166.15-153.44-6.61-7.35-7.28,7.35,7,7ZM260.79-90.57l-7.31,7.36,7.38,6.57,6.54-6.58ZM-29.27,201.76l7.33,6.63,6.59-6.64L-22,194.42ZM173.78-2.88l-7.3,7.36,7.37,6.57,6.54-6.58ZM93.39,92.17l-6.61-7.35-7.29,7.35,7,7Zm-514.2,504.22,7.37,6.58,6.53-6.58-6.61-7.35Zm246.67-234.58,6.51-6.56-6.61-7.35-7.3,7.35Zm65.15-79.7-7.29,7.35,7.34,6.61,6.58-6.64Zm-152.29,153.5-7.28,7.34,7.41,6.55,6.52-6.57ZM-43.74,216.35-51,223.71l7.39,6.57,6.53-6.59Zm65.36-51.87,6.49-6.54-6.57-7.38L14.21,158ZM288.42-83.41l-5.84-6.52-6.52,6.57c2.11,1.86,4.33,3.82,6.57,5.78ZM-124.9,333.15l-5.81-6.54-6.51,6.56,6.54,5.81ZM-435.23,633.52l-6.53,6.58,6.56,5.77,5.77-5.82Zm435-438.45-6.52,6.57,6.56,5.78,5.8-5.85Zm58.74-59.2,6.54,5.79,5.8-5.84-5.81-6.53Zm-124,125L-72,267.41l6.55,5.79,5.8-5.85ZM217.4-11.83l5.77-5.82c-2-2.26-4-4.48-5.84-6.51l-6.53,6.58ZM102,92l6.6,5.75L114.4,92c-2-2.25-4-4.46-5.83-6.52ZM-348.19,558.18l5.79-5.83-5.81-6.53-6.54,6.59Zm15.2-27.7,6.56,5.78,5.79-5.84-5.82-6.52Zm599.66-592L260.83-68l-6.52,6.58,6.57,5.78ZM-21.91,229.35l5.79-5.84c-2-2.21-4-4.43-5.83-6.51l-6.52,6.57ZM-420,618.17l6.55,5.79,5.79-5.83-5.82-6.52Zm577.91-570-5.83-6.52-6.52,6.58L152.11,54ZM-233.65,442.76c-2.14-2.41-4.1-4.6-5.83-6.53l-6.5,6.55,6.54,5.81Zm603.3-608,5.78-5.83-5.83-6.51L363.07-171ZM130.33,75.9l5.8-5.84-5.82-6.51L123.8,70.1Zm65.28-65.78,5.79-5.84c-2-2.21-4-4.43-5.83-6.51l-6.52,6.57Zm158-159.27-5.81-6.54-6.52,6.57,6.56,5.79ZM239.08-46.08l-6.52,6.57,6.56,5.78,5.79-5.84Zm-429.2,445-5.83-6.52-6.53,6.58,6.56,5.78Zm-71.08,71.63,5.8-5.84-5.83-6.52-6.5,6.56Zm108.75-109.62,5.79-5.84-5.81-6.51-6.5,6.55ZM-298.89,508.5l-5.82-6.53-6.53,6.59c2.15,1.88,4.38,3.85,6.56,5.78ZM43.31,151.23l-6.51,6.56c2.14,1.9,4.37,3.86,6.55,5.78l5.8-5.84Zm-124.67,138-5.83-6.52-6.53,6.58,6.56,5.78Zm-92.85,81.18-6.51,6.57,6.55,5.78,5.8-5.84Zm136.33-125-5.83-6.52-6.51,6.57,6.55,5.79ZM-283,492.42l5.79-5.83-5.81-6.52-6.5,6.56Zm-87,75.34-6.52,6.57,6.54,5.79,5.8-5.85ZM326.08-133.77l-6.52,6.58,6.56,5.77,5.77-5.82ZM92.65,113.89l-5.82-6.52L80.3,114l6.56,5.78ZM21.56,173.15,15,179.72l6.55,5.78,5.8-5.84Zm-413.3,416.53-6.5,6.56,6.56,5.78,5.8-5.84C-387.88,594-389.82,591.8-391.74,589.68ZM304.33-111.84l-6.51,6.56,6.55,5.78,5.8-5.84C308.16-107.59,306.22-109.74,304.33-111.84Zm87-75.33,5.8-5.84-5.83-6.52L384.82-193Zm-224,213.42L173.87,32l5.79-5.84-5.83-6.52Zm-282.79,285,6.56,5.78,5.79-5.83-5.83-6.52ZM-217.72,414.3l-6.52,6.57,6.56,5.78,5.79-5.84ZM287.77-61.87l-5.25-5.21-5.33,5.38,5.24,5.2Zm-310,312.3,5.4-5.44L-22,239.82l-5.4,5.45ZM-304.76,524.81l-5.49,5.54,5.41,4.83,5.23-5.26ZM396.55-171.51l-5.25-5.21-5.48,5.52,5.49,5ZM239-23.25l-5.49,5.53L239-12.88l5.22-5.27ZM130.35,86.29l-5.55,5.6,5.46,5,5.09-5.13Zm-283,295.7,5.39-5.43-5.22-5.18-5.39,5.43ZM43.06,184.66l5.4-5.45-5.2-5.16-5.4,5.45ZM-87.44,316.22l5.39-5.43-5.21-5.18L-92.65,311ZM190.05,26.12l5.46,4.95,5.22-5.25-5.23-5.19ZM-103.76,332.69l-5.23-5.18-5.48,5.53L-109,338Zm-282.78,285-5.25-5.21-5.33,5.38,5.24,5.2Zm560-564.67,5.38-5.42-5.13-5.09L168.37,48ZM369.55-154.79l-5.49,5.53,5.41,4.86,5.23-5.28Zm-603.83,619L-239.5,459l-5.49,5.53,5.46,4.95Zm38.07-38.42,5.4-5.44-5.2-5.17-5.4,5.45ZM304.3-89l-5.49,5.53,5.42,4.9,5.25-5.29ZM-174.17,393.21l-5.56,5.6,5.46,4.95,5.09-5.13ZM-38.49,266.94l-5.25-5.21-5.48,5.52,5.49,5ZM86.58,140.84,92,135.41l-5.22-5.18-5.39,5.43ZM21.54,196,16,201.52c2,1.77,3.75,3.35,5.43,4.87l5.24-5.28ZM65,152.13l-5.49,5.53,5.36,4.86,5.26-5.3ZM-353.75,574.18l5.44,4.9,5.23-5.27-5.2-5.15ZM347.87-132.94l-5.43,5.47,5.21,5.18,5.2-5.24ZM-321.29,552l-5.24-5.21-5.34,5.38,5.25,5.21ZM260.81-45.17l-5.5,5.54,5.43,4.87L266-40ZM-261.5,491.54l5.41-5.45-5.17-5.13-5.41,5.45ZM-283,502.87l-5.48,5.53,5.41,4.9,5.25-5.29Zm152.15-143,5.26-5.3-5.14-5.1-5.49,5.53ZM103,113.8l5.41,4.89,5.25-5.28-5.18-5.14ZM320.56-105.41c1.88,1.69,3.64,3.29,5.46,5l5.22-5.26L326-110.9ZM-413.52,634.42-419,640l5.41,4.83,5.23-5.26ZM217.07,9.28l5.41-5.45-5.2-5.16-5.41,5.45ZM-370.3,601.13l5.38-5.42-5.13-5.09-5.38,5.42ZM157.18,69.74l-5.25-5.21L146.55,70l5.49,5ZM-60.24,288.86l-5.25-5.2L-71,289.2l5.52,4.92Zm60-71-5.49,5.54,5.41,4.83L4.91,223ZM-212.51,442.33l-5.24-5.21-5.49,5.53,5.51,4.94ZM304-57.8l4.3-4.33-4.06-4L300-61.83ZM86.69,153.07l-4.21,4.24,4.09,4.06,4.21-4.24ZM-69.94,310.89c1.51,1.38,2.86,2.61,4.27,3.88l4.19-4.22-4.1-4.06Zm-169.53,171-4.45,4.48,4.24,3.7,4.19-4.22ZM343.34-105.64l4.27,3.89L351.8-106,347.71-110ZM108.44,131.15l-4.21,4.24,4.09,4.06,4.21-4.24ZM365.05-127.54l4.32,3.8,4.15-4.18-4.08-4ZM-43.68,284.61l-4.47,4.5,4.22,3.63,4.19-4.22ZM391.05-145.65l4.16-4.2-3.94-3.91-4.35,4.39ZM60.73,179.19l4.09,4.07L69,179,64.93,175ZM-391.74,635.36l-4.45,4.48,4.24,3.7,4.2-4.22ZM-370,613.45l-4.46,4.49c1.57,1.35,3,2.55,4.22,3.65l4.19-4.22ZM282.53-44.24l-4.4,4.44L282.36-36l4.19-4.23Zm130.68-131.6-4.35,4.39,4,4,4.15-4.19ZM-257.2,507.89l-4.08-4.06-4.39,4.43,4.29,3.84Zm-65.31,65.8-4-4-4.38,4.42,4.32,3.71ZM130.33,109.23l-4.46,4.49,4.22,3.65,4.18-4.22ZM-22.23,270.88l4.16-4.2L-22,262.77l-4.36,4.39Zm-69.52,62,4.41,3.79,4.09-4.13-4.12-4.08ZM38.76,201.31l4.33,3.77,4.13-4.16-4.07-4ZM156.09,91.38l-4.08-4-4.4,4.43,4.32,3.81ZM-108.83,350.3l-4.36,4.4,4,4,4.15-4.18Zm435-438.52-4.51,4.54,4.23,3.85L330-84C328.71-85.41,327.52-86.7,326.14-88.22ZM-218,468.29l4.21-4.24-4.09-4.06-4.21,4.24Zm-65.14,57.47-4.2,4.24,4.09,4.06,4.2-4.24ZM-418,661.67l4.32,3.81,4.16-4.19-4.09-4ZM169.27,69.81l4.41,3.79,4.09-4.13-4.11-4.08Zm87.06-87.76,4.28,3.89,4.19-4.23-4.1-4.06ZM-130.58,372.22l-4.36,4.4,4,4,4.16-4.18C-128.07,375-129.24,373.7-130.58,372.22ZM-.24,240.75l-4.41,4.44L-.42,249l4.2-4.23ZM195.45,43.46l-4.21,4.24,4.09,4.06,4.21-4.24ZM-348.17,591.38l-4.51,4.54,4.23,3.85,4.14-4.17C-345.6,594.19-346.79,592.9-348.17,591.38ZM-192,442.16l-4-4-4.38,4.41,4.32,3.71Zm39.42-47.94-4.21,4.24,4.09,4.06,4.21-4.24ZM21.55,218.83l-4.45,4.48,4.24,3.7,4.19-4.23ZM217.28,21.53,212.87,26l4.23,3.78,4.2-4.23Zm-396,399,4.28,3.83,4.16-4.18-4.08-4ZM243.1,3.67,239-.39,234.62,4l4.29,3.84Zm-547.81,544-4.46,4.5,4.22,3.64,4.19-4.22ZM388-127.7l3.1,2.37,2.57-3-2.56-2.54ZM40,223.13l3,2.15,2.7-2.72L43.1,220ZM18.3,244.86l3,2.57,2.66-3-2.64-2.62Zm46.86-46.92-3.22,3.25,2.67,2.18,2.8-2.82C66.63,199.63,66,198.88,65.16,197.94ZM-.09,263.7-3.32,267l2.68,2.19,2.8-2.82ZM347.82-87.11l-3.18,3.21,2.79,2.33,2.75-2.77Zm-677.46,682.8,2.72,2.34,2.79-2.82-2.37-2.68ZM-19.55,288.35l-2.4-2.68-3.18,3.21,2.83,2.23ZM-348.13,614.46l-3.22,3.26,2.68,2.18,2.8-2.82ZM-47,310.81l3,2.17,2.69-2.72-2.59-2.57ZM86.8,176l-3.18,3.21,2.79,2.33,2.74-2.77ZM-63,332.16l-2.54-2.53-3.1,3.12,2.87,2.2ZM105.4,157.24l2.72,2.34,2.79-2.82-2.37-2.69Zm24.91-25.07-3.16,3.18,2.72,2.28,2.8-2.83Zm21.85-21.94-3.3,3.32,2.88,2.15L154.4,113ZM-87.22,351.35l-3.18,3.2,2.79,2.33,2.75-2.77ZM173.37,93.85,176.18,91l-2.56-2.54-3,3ZM-112.27,376.59l3,2.15,2.69-2.72-2.57-2.56Zm-261,262.88,3,2.57,2.67-2.95-2.65-2.62Zm70.9-66.18-2.4-2.66-3.16,3.18,2.77,2.3Zm171.72-178-3.22,3.25,2.68,2.19,2.8-2.82ZM195.67,66.4l-3.22,3.25,2.68,2.19,2.8-2.82ZM-152.91,422.69l2.81-2.84-2.56-2.54-3,3Zm566-575.56-3.18,3.2,2.79,2.33,2.74-2.77Zm-46.66,47,2.72,2.34,2.8-2.82L369.56-109Zm-543.8,548.07,2.72,2.33,2.8-2.82-2.37-2.68ZM219.68,47.18l-2.56-2.54-3,3,3,2.39Zm18.94-19.1,2.82-2.83-2.57-2.55-3,3ZM-193.57,463.73l-2.4-2.68-3.18,3.21,2.84,2.23ZM260.37,6.16l2.82-2.84L260.63.78l-3,3C258.59,4.58,259.39,5.29,260.37,6.16ZM-217.72,482.93l-3.16,3.18,2.72,2.28,2.8-2.82Zm-68.5,68.85,3,2.56,2.66-2.94-2.64-2.62ZM285-18.58l-2.5-2.48L279.37-18l2.88,2.1ZM-242.69,508l2.78,2.27,2.8-2.82-2.4-2.65ZM-391.64,658.3l-3.29,3.32,2.87,2.15,2.67-2.69Zm696-701.52L301.17-40l2.71,2.32,2.8-2.82ZM-258.85,529.49l-2.5-2.49-3.08,3.11,2.89,2.1Zm584.69-589,2.64-2.95L326-65,322.9-61.9Z"/><path class="cls-4" d="M10.75,136.27c-.7-.26-1.38-.59-2.1-.78C3.19,134-.07,129.77.31,124.56A10.44,10.44,0,0,1,9.78,115c5.22-.42,9.5,2.8,11,8.25a19.55,19.55,0,0,0,.8,2.09l0-.17q-1.8,9.21-11,11.08Z"/><path class="cls-4" d="M32.5,114.35a20.5,20.5,0,0,0-2.1-.79c-5.46-1.45-8.72-5.71-8.34-10.93a10.45,10.45,0,0,1,9.47-9.55c5.22-.42,9.5,2.81,11,8.26a22,22,0,0,0,.8,2.09v-.17q-1.8,9.19-11,11.07Z"/><path class="cls-4" d="M54.25,92.43a20.5,20.5,0,0,0-2.1-.79c-5.46-1.46-8.72-5.71-8.34-10.93a10.46,10.46,0,0,1,9.48-9.55c5.21-.42,9.49,2.81,11,8.26.2.71.53,1.39.8,2.09v-.18q-1.8,9.21-11,11.08Z"/><path class="cls-4" d="M76,70.5c-.7-.26-1.38-.59-2.09-.78-5.46-1.46-8.73-5.71-8.35-10.93A10.45,10.45,0,0,1,75,49.24c5.21-.42,9.49,2.81,11,8.25.2.72.53,1.4.8,2.1v-.18q-1.8,9.21-11,11.08Z"/><path class="cls-4" d="M97.75,48.58a21.82,21.82,0,0,0-2.09-.78c-5.46-1.46-8.72-5.72-8.35-10.94a10.46,10.46,0,0,1,9.48-9.54c5.21-.42,9.5,2.8,11,8.25a22,22,0,0,0,.81,2.09l0-.17q-1.8,9.21-11,11.08Z"/><path class="cls-4" d="M119.51,26.66a20.5,20.5,0,0,0-2.1-.79c-5.46-1.45-8.72-5.71-8.34-10.93a10.45,10.45,0,0,1,9.47-9.55c5.22-.42,9.5,2.81,11,8.26a20.41,20.41,0,0,0,.8,2.09l0-.17q-1.8,9.2-11,11.07Z"/><path class="cls-4" d="M141.26,4.74a20.5,20.5,0,0,0-2.1-.79C133.7,2.49,130.44-1.76,130.82-7a10.45,10.45,0,0,1,9.47-9.55c5.22-.42,9.5,2.81,11,8.26.2.71.53,1.39.8,2.09l0-.18q-1.78,9.21-11,11.08Z"/><path class="cls-4" d="M17.62,96.34a10.06,10.06,0,1,1-14.3,14.14,10.06,10.06,0,0,1,14.3-14.14Z"/><path class="cls-4" d="M112.27-13.32a10,10,0,0,1,14.15.09,10,10,0,0,1-.23,14.43A10,10,0,0,1,112,.83,10,10,0,0,1,112.27-13.32Z"/><path class="cls-4" d="M90.46,8.66a10.06,10.06,0,1,1,14,14.4,10.06,10.06,0,0,1-14-14.4Z"/><path class="cls-4" d="M68.55,30.75a10.05,10.05,0,1,1,.21,14.15A10,10,0,0,1,68.55,30.75Z"/><path class="cls-4" d="M46.83,66.64A10.06,10.06,0,1,1,61,66.92,10,10,0,0,1,46.83,66.64Z"/><path class="cls-4" d="M25.11,88.59a10.05,10.05,0,1,1,14.15.22A10,10,0,0,1,25.11,88.59Z"/><path class="cls-4" d="M3.53,88.56A10,10,0,0,1,3.6,74.65a10,10,0,0,1,13.91.21,10,10,0,0,1-.07,13.64A10,10,0,0,1,3.53,88.56Z"/><path class="cls-4" d="M25.15,52.93a9.79,9.79,0,1,1,.34,13.91A9.95,9.95,0,0,1,25.15,52.93Z"/><path class="cls-4" d="M90.42-12.84A10,10,0,0,1,104.33-13a10,10,0,0,1,0,13.91,10,10,0,0,1-13.64.17A10,10,0,0,1,90.42-12.84Z"/><path class="cls-4" d="M46.93,44.62a9.79,9.79,0,1,1,13.92.13A10,10,0,0,1,46.93,44.62Z"/><path class="cls-4" d="M68.65,9.09a10,10,0,0,1,13.91-.21,10,10,0,0,1,.07,13.91A10,10,0,0,1,69,23,10,10,0,0,1,68.65,9.09Z"/><path class="cls-4" d="M82.14-12.66a9.2,9.2,0,0,1,0,13.35A9.21,9.21,0,0,1,69.11.74a9.2,9.2,0,0,1,0-13.35A9.19,9.19,0,0,1,82.14-12.66Z"/><path class="cls-4" d="M47.33,22.63a9.2,9.2,0,0,1,0-13.35,9.2,9.2,0,0,1,13.08,0,9.21,9.21,0,0,1,0,13.35A9.19,9.19,0,0,1,47.33,22.63Z"/><path class="cls-4" d="M25.4,31.39a9.35,9.35,0,0,1,13.44,13,9.35,9.35,0,0,1-13.44-13Z"/><path class="cls-4" d="M16.84,53.06A9.21,9.21,0,0,1,17,66.41a9.2,9.2,0,0,1-13.08.14A9.21,9.21,0,0,1,3.76,53.2,9.2,9.2,0,0,1,16.84,53.06Z"/><path class="cls-4" d="M3.85,31.48a9.33,9.33,0,0,1,12.92.06,9.33,9.33,0,0,1-.06,12.92A9.33,9.33,0,0,1,3.79,44.4,9.35,9.35,0,0,1,3.85,31.48Z"/><path class="cls-4" d="M25.51,9.65a9.33,9.33,0,0,1,12.92-.13,9.33,9.33,0,0,1,.13,12.92,9.33,9.33,0,0,1-12.92.13A9.33,9.33,0,0,1,25.51,9.65Z"/><path class="cls-4" d="M47.22-12.23a9.36,9.36,0,0,1,12.92-.22A9.36,9.36,0,0,1,60.36.47,9.34,9.34,0,0,1,47.44.69,9.34,9.34,0,0,1,47.22-12.23Z"/><path class="cls-4" d="M25.9.38a8.48,8.48,0,0,1,0-12.36A8.47,8.47,0,0,1,38-12,8.47,8.47,0,0,1,38,.39,8.47,8.47,0,0,1,25.9.38Z"/><path class="cls-4" d="M4.14,10a8.48,8.48,0,0,1,12.35.24,8.47,8.47,0,0,1-.23,12.08A8.51,8.51,0,0,1,3.9,22.06,8.5,8.5,0,0,1,4.14,10Z"/><path class="cls-4" d="M4.32.35A8.57,8.57,0,0,1,4.06-11.5a8.57,8.57,0,0,1,11.84-.26A8.56,8.56,0,0,1,16.17.08,8.57,8.57,0,0,1,4.32.35Z"/></g></g><path class="cls-5" d="M495.75,54a43.7,43.7,0,0,0-17.08,3.08,50.55,50.55,0,0,0-6.42,3.22,3.24,3.24,0,0,1-4.87-3l1-13.25a3.24,3.24,0,0,1,3.23-3h59.89a3.36,3.36,0,0,0,3.36-3.36V5.58a3.23,3.23,0,0,0-3.23-3.23h-93a4.21,4.21,0,0,0-4.21,3.9l-6.08,80.26A3.24,3.24,0,0,0,431.14,90l31.55,4.39a3.21,3.21,0,0,0,2.57-.76c.47-.42,1-.93,1.69-1.55a24.75,24.75,0,0,1,5-3.52,17.14,17.14,0,0,1,8.31-1.71h3.19A18.27,18.27,0,0,1,501.66,105v2.51a18.27,18.27,0,0,1-18.21,18.21h-3.87a18.33,18.33,0,0,1-18-15.45,3.22,3.22,0,0,0-3.2-2.76H424.63a3.23,3.23,0,0,0-3.23,3.4,51.63,51.63,0,0,0,7.07,23.57,50.53,50.53,0,0,0,20.6,19.24q13.44,7.06,31.42,7.06h6.83q17.08,0,30.62-7.06A52.45,52.45,0,0,0,539,134.39a50.93,50.93,0,0,0,7.51-27.09q0-24.81-13.88-39T495.75,54ZM111.78.91H5.66A5.67,5.67,0,0,0,0,6.57V156.32A5.67,5.67,0,0,0,5.66,162H46a5.67,5.67,0,0,0,5.66-5.67V104.18a.67.67,0,0,1,.67-.67h51A5.67,5.67,0,0,0,109,97.85V69.14a5.67,5.67,0,0,0-5.67-5.66h-51a.67.67,0,0,1-.67-.67V43.66a.67.67,0,0,1,.67-.67H108a5.66,5.66,0,0,0,5.62-5L117.4,7.26A5.66,5.66,0,0,0,111.78.91Zm-7.86,31.15a.66.66,0,0,1-.65.58H47a5.67,5.67,0,0,0-5.66,5.66V68.17A5.67,5.67,0,0,0,47,73.83H98a.66.66,0,0,1,.66.66v18a.66.66,0,0,1-.66.66H47a5.67,5.67,0,0,0-5.66,5.66V151a.66.66,0,0,1-.67.66H11a.66.66,0,0,1-.67-.66v-139a.67.67,0,0,1,.67-.66h94.71a.65.65,0,0,1,.49.22.67.67,0,0,1,.16.52ZM373.84,78.25a39.59,39.59,0,0,0,14.41-10.67c5.06-6,7.63-14.78,7.63-25.95a38.31,38.31,0,0,0-5.83-20.55A41.91,41.91,0,0,0,374.21,6.33,45.15,45.15,0,0,0,352.43.91H270a5.67,5.67,0,0,0-5.66,5.66V156.32A5.67,5.67,0,0,0,270,162H353.8a46.16,46.16,0,0,0,22.95-5.9,45,45,0,0,0,16.61-16,42.19,42.19,0,0,0,6.16-22.23C399.52,97.52,390.89,84.23,373.84,78.25Zm-20,73.38H275.4a.66.66,0,0,1-.67-.66v-139a.67.67,0,0,1,.67-.66h77a35,35,0,0,1,16.85,4.17,31.67,31.67,0,0,1,12,11.13,27.71,27.71,0,0,1,4.27,15.07c0,8.67-1.76,15.17-5.22,19.3-3.73,4.46-8.76,7.59-15.36,9.58l-1.56.47a5.63,5.63,0,0,0-4,5.43v4.28a5.62,5.62,0,0,0,4.39,5.52l1.71.39c16.39,3.75,23.7,13.39,23.7,31.25a31.56,31.56,0,0,1-4.66,16.86,34.79,34.79,0,0,1-12.84,12.36A35.91,35.91,0,0,1,353.8,151.63Zm-108-27a5.66,5.66,0,0,0-5.62-5H180.4a.66.66,0,0,1-.66-.66V100.08a.67.67,0,0,1,.66-.66h56.92A5.67,5.67,0,0,0,243,93.76V65.27a5.67,5.67,0,0,0-5.67-5.66H180.4a.67.67,0,0,1-.66-.67V42.52a.66.66,0,0,1,.66-.66h59.8a5.67,5.67,0,0,0,5.62-5l3.75-29.62A5.65,5.65,0,0,0,244,.91H133.53a5.67,5.67,0,0,0-5.66,5.66V156.32a5.67,5.67,0,0,0,5.66,5.67H244a5.66,5.66,0,0,0,5.62-6.35Zm-9.67-93.73a.66.66,0,0,1-.65.58H175.05a5.67,5.67,0,0,0-5.67,5.67V64.3A5.67,5.67,0,0,0,175.05,70H232a.66.66,0,0,1,.66.66V88.4a.66.66,0,0,1-.66.67H175.05a5.67,5.67,0,0,0-5.67,5.66v29.63a5.67,5.67,0,0,0,5.67,5.67h60.4a.66.66,0,0,1,.66.58l2.47,20.28a.64.64,0,0,1-.16.52.65.65,0,0,1-.5.22h-99a.66.66,0,0,1-.67-.66v-139a.67.67,0,0,1,.67-.66h99a.65.65,0,0,1,.5.22.68.68,0,0,1,.16.53ZM339.69,88.61H308.6a5.67,5.67,0,0,0-5.66,5.66V125.5a5.67,5.67,0,0,0,5.66,5.66h31.09a19.1,19.1,0,0,0,19.23-19.23v-4.09a19.12,19.12,0,0,0-19.23-19.23Zm-26.4,31.54V99.63A.67.67,0,0,1,314,99h25.73a8.76,8.76,0,0,1,8.87,8.88v4.09a8.76,8.76,0,0,1-8.87,8.88H314A.67.67,0,0,1,313.29,120.15ZM308.6,71.1H337a19.12,19.12,0,0,0,19.23-19.23V48A19.14,19.14,0,0,0,337,28.77H308.6a5.67,5.67,0,0,0-5.66,5.66v31A5.67,5.67,0,0,0,308.6,71.1Zm4.69-31.31a.67.67,0,0,1,.67-.67h23A8.76,8.76,0,0,1,345.83,48v3.87A8.74,8.74,0,0,1,337,60.74H314a.66.66,0,0,1-.67-.66Zm414,41.82a81.64,81.64,0,1,1-143.6-53.09,2.15,2.15,0,0,0-.12-2.92L574.9,17a2.16,2.16,0,0,1,1.53-3.68h47.41a3.82,3.82,0,0,1,3.83,3.83V64.51A2.16,2.16,0,0,1,624,66l-8.16-8.17a2.18,2.18,0,0,0-3.3.29,40.59,40.59,0,1,0,60.68-6.29.69.69,0,0,0-.54-.52h0c-.48-.43-1-.85-1.48-1.26a.8.8,0,0,0-.26-1.49.78.78,0,0,0-.92.57,39.64,39.64,0,0,0-4.51-2.94.88.88,0,0,0,.09-.2,1,1,0,0,0-1.88-.75c-.92-.46-1.86-.88-2.82-1.27a1.11,1.11,0,0,0-.51-.25h-.14c-.42-.16-.85-.32-1.29-.47a1.27,1.27,0,0,0,.64-.79,1.23,1.23,0,1,0-2.28.26c-.77-.23-1.55-.44-2.33-.62a1.34,1.34,0,0,0,.29-.57A1.34,1.34,0,1,0,652.6,41a1.3,1.3,0,0,0,0,.62c-.7-.13-1.41-.23-2.12-.32a1.32,1.32,0,0,0,.35-.66,1.43,1.43,0,0,0-2.8-.62,1.43,1.43,0,0,0,.18,1.07l-.42,0a1.41,1.41,0,0,0-.75-.4,1.45,1.45,0,0,0-1.26.34h-.2c-.57,0-1.15,0-1.72,0a3.33,3.33,0,0,0-.21-.73h0l.25.19a1.52,1.52,0,1,0,.51-2.48,1.55,1.55,0,0,1-.31.07h0a1.64,1.64,0,0,0,.46-2.21h0a1.6,1.6,0,0,1,.25.18,1.52,1.52,0,1,0,.51-2.47l-.3.07h0a1.63,1.63,0,0,0,.46-2.21h0l.25.18a1.52,1.52,0,1,0,.51-2.47l-.31.07h0a1.65,1.65,0,0,0,.46-2.22v0h0a1.6,1.6,0,0,1,.25.18,1.52,1.52,0,1,0,.51-2.47c-.1,0-.2,0-.3.06h0a1.63,1.63,0,0,0,.45-2.21h0a2.4,2.4,0,0,1,.26.18,1.52,1.52,0,0,0,2,.14A1.55,1.55,0,0,0,650,21a1.52,1.52,0,0,0-1.9-.67l-.31.07h0a1.65,1.65,0,0,0,.46-2.22h0l.25.19a1.52,1.52,0,1,0,.51-2.48,1.63,1.63,0,0,1-.3.07h0a1.64,1.64,0,0,0,.45-2.21h0a2.4,2.4,0,0,1,.26.18,1.52,1.52,0,0,0,2,.13,1.54,1.54,0,0,0,.4-1.93,1.52,1.52,0,0,0-1.9-.67l-.31.07h0a1.63,1.63,0,0,0,.46-2.21h0l.25.19A1.52,1.52,0,1,0,650.87,7l-.3.07h0A1.66,1.66,0,0,0,651,4.85l0,0h0a2.4,2.4,0,0,1,.26.18,1.52,1.52,0,0,0,2,.13,1.51,1.51,0,0,0-1.5-2.6c-.1,0-.21,0-.31.06h0a1.63,1.63,0,0,0,.46-2.21h0l.25.18a1.52,1.52,0,0,0,2,.14,1.32,1.32,0,0,0,.25-.28c.62.06,1.24.15,1.86.23a1.43,1.43,0,0,0,1.09,1.16A1.45,1.45,0,0,0,659,1.08l1.84.33a1.31,1.31,0,0,0,2.5.52c.68.15,1.37.3,2,.47a1.2,1.2,0,0,0,2.19.59c.83.23,1.66.46,2.48.72a1.13,1.13,0,0,0,.71.57,1.06,1.06,0,0,0,.7-.09q2.64.87,5.18,1.92a.85.85,0,0,0-.3.44.9.9,0,1,0,1.75.44.82.82,0,0,0,0-.27c1,.43,1.94.86,2.9,1.32a.74.74,0,0,0,.5.38.7.7,0,0,0,.25,0A81.73,81.73,0,0,1,727.27,81.61ZM684.69,12.92a.77.77,0,0,0,.37.61c.17.07.45-.15.68-.24,0-.08,0-.16,0-.23-.18-.18-.34-.46-.53-.5S684.7,12.78,684.69,12.92ZM684.37,17c-.18,0-.57.19-.58.33a.74.74,0,0,0,.33.63c.17.08.46-.13.69-.21l.06-.22C684.71,17.34,684.56,17.05,684.37,17Zm-1.15,5.4c.17.07.45-.14.68-.22L684,22c-.17-.18-.32-.47-.52-.51s-.56.2-.57.34A.73.73,0,0,0,683.22,22.4Zm-.71,3.47c-.18,0-.56.22-.56.36a.75.75,0,0,0,.37.61c.18.06.45-.16.68-.25l0-.23C682.87,26.18,682.71,25.9,682.51,25.87Zm.75-14.9c.26,0,.55-.19.83-.3l.06-.26c-.2-.22-.39-.58-.62-.62a.86.86,0,0,0-.71.43A.52.52,0,0,0,683.26,11Zm-1.37,3.71c0,.27.22.55.34.82l.26.05c.21-.21.56-.4.59-.64a.85.85,0,0,0-.45-.69A.52.52,0,0,0,681.89,14.68ZM681,19.1a.51.51,0,0,0,.45.74c.27,0,.55-.2.83-.32,0-.08,0-.17.05-.26-.21-.21-.39-.56-.63-.6A.85.85,0,0,0,681,19.1Zm-1.38,9.61c.26,0,.55-.2.83-.31,0-.09,0-.17,0-.26-.2-.22-.39-.57-.63-.61a.89.89,0,0,0-.7.44A.52.52,0,0,0,679.61,28.71ZM679,32a.86.86,0,0,0-.71.44.52.52,0,0,0,.45.74c.27,0,.55-.2.83-.31l.06-.26C679.37,32.36,679.19,32,679,32Zm.68-10.84a.74.74,0,0,0-1.45-.25.7.7,0,0,0,.57.84A.72.72,0,0,0,679.63,21.13Zm-1.49,3.59a.72.72,0,0,0-.87.6.7.7,0,0,0,.57.84.72.72,0,0,0,.87-.59A.74.74,0,0,0,678.14,24.72Zm-.94,4.43A.74.74,0,0,0,677,30.6a.69.69,0,0,0,.84-.57A.73.73,0,0,0,677.2,29.15Zm.1-11.61a.81.81,0,1,0,.63,1A.77.77,0,0,0,677.3,17.54Zm-1.86,5a.8.8,0,0,0,.61,1,.79.79,0,0,0,1-.57.81.81,0,1,0-1.57-.42ZM671,19.41a1,1,0,1,0-1.23.77A1,1,0,0,0,671,19.41Zm-1.7,3.2a1,1,0,1,0,.78,1.23A1,1,0,0,0,669.34,22.61Zm0-5.89a1.13,1.13,0,0,0-.89-1.31,1.11,1.11,0,1,0,.89,1.31Zm-3.08,3.94a1.11,1.11,0,1,0,1.31-.81A1.14,1.14,0,0,0,666.28,20.66Zm-.07,5.8a1.11,1.11,0,1,0,.44-2.18,1.14,1.14,0,0,0-1.29.85A1.12,1.12,0,0,0,666.21,26.46Zm-.4-3.51a1.16,1.16,0,1,0-1.4.87A1.12,1.12,0,0,0,665.81,23Zm0-5.82a1.16,1.16,0,1,0,.89,1.4A1.13,1.13,0,0,0,665.83,17.13Zm-.79-1.3a1.23,1.23,0,1,0-1.45,1A1.25,1.25,0,0,0,665,15.83Zm-3.32,3.94a1.23,1.23,0,1,0,1.45-.95A1.26,1.26,0,0,0,661.72,19.77Zm-.27-3.65a1.26,1.26,0,1,0,.95,1.49A1.23,1.23,0,0,0,661.45,16.12ZM660,23a1.27,1.27,0,1,0-1-1.49A1.25,1.25,0,0,0,660,23Zm-.16-3.66a1.34,1.34,0,1,0-1.57,1.07A1.38,1.38,0,0,0,659.8,19.36Zm.91-4.41a1.34,1.34,0,1,0-1.59,1A1.37,1.37,0,0,0,660.71,15Zm-2.77-4.29a1.37,1.37,0,1,0,1,1.61A1.35,1.35,0,0,0,657.94,10.66Zm-2.55,5.46a1.37,1.37,0,1,0,1.63-1A1.35,1.35,0,0,0,655.39,16.12Zm-.92,4.47a1.37,1.37,0,1,0,1.59-1.07A1.35,1.35,0,0,0,654.47,20.59Zm-.92,4.46A1.37,1.37,0,1,0,655.18,24,1.35,1.35,0,0,0,653.55,25.05Zm1.79,2.67a1.34,1.34,0,1,0,1.58-1A1.37,1.37,0,0,0,655.34,27.72Zm3.54-3.89a1.34,1.34,0,0,0-2.62-.57,1.39,1.39,0,0,0,1,1.6A1.37,1.37,0,0,0,658.88,23.83Zm.15,3.62a1.27,1.27,0,1,0-.94-1.5A1.24,1.24,0,0,0,659,27.45Zm.85,1.22a1.23,1.23,0,1,0,1.44-1A1.26,1.26,0,0,0,659.88,28.67Zm3.33-4a1.23,1.23,0,0,0-2.4-.52,1.24,1.24,0,0,0,.93,1.46A1.27,1.27,0,0,0,663.21,24.72Zm.37,3.56a1.16,1.16,0,1,0-1-1.36A1.14,1.14,0,0,0,663.58,28.28Zm1.69,2.61a1.11,1.11,0,1,0,.49-2.17,1.11,1.11,0,0,0-.49,2.17Zm1,1.41a1,1,0,0,0,2,.38,1,1,0,1,0-2-.38Zm2.93-4a1,1,0,1,0-1.22.8A1,1,0,0,0,669.21,28.26ZM669,30.57a1,1,0,1,0,1.17-.81A1,1,0,0,0,669,30.57Zm2.83-4a1,1,0,0,0-.72-1.23,1,1,0,1,0,.72,1.23Zm.93-4.5a1,1,0,1,0-1.2.74A1,1,0,0,0,672.75,22.06Zm.62,3.35a.9.9,0,1,0-.69-1.1A.9.9,0,0,0,673.37,25.41Zm2-5.16a.91.91,0,0,0-.72-1,.9.9,0,1,0,.72,1ZM675.13,28a.81.81,0,1,0-.6-1A.79.79,0,0,0,675.13,28Zm1.14-12.16a.9.9,0,1,0-1.1.71A.91.91,0,0,0,676.27,15.83Zm-1.69-2.65a1,1,0,1,0-1.15.77A1,1,0,0,0,674.58,13.18Zm-2.82,4a1,1,0,1,0,1.91.47,1,1,0,0,0-.73-1.18A1,1,0,0,0,671.76,17.17Zm-.59-3.43A1,1,0,1,0,672,15,1,1,0,0,0,671.17,13.74ZM669.46,11a1.11,1.11,0,1,0-.52,2.16,1.12,1.12,0,0,0,1.33-.85A1.14,1.14,0,0,0,669.46,11Zm-1.79-2.73a1.16,1.16,0,1,0,.88,1.41A1.13,1.13,0,0,0,667.67,8.26Zm-2.3,5.35a1.16,1.16,0,1,0,2.28.43,1.16,1.16,0,0,0-2.28-.43ZM665,10a1.27,1.27,0,0,0-1.47.94,1.23,1.23,0,0,0,2.4.53A1.27,1.27,0,0,0,665,10Zm-1.79-2.72a1.27,1.27,0,1,0,1,1.51A1.25,1.25,0,0,0,663.23,7.23Zm-2.39,5.38a1.27,1.27,0,1,0,1.56-.92A1.25,1.25,0,0,0,660.84,12.61Zm.79-2.11A1.34,1.34,0,1,0,659,10a1.34,1.34,0,0,0,2.63.52ZM659.9,7.82a1.37,1.37,0,1,0-2.69-.51,1.37,1.37,0,0,0,2.69.51Zm-3.73.1a1.43,1.43,0,1,0,1.11,1.71A1.46,1.46,0,0,0,656.17,7.92Zm-2.61,5.55a1.44,1.44,0,1,0,1.71-1.11A1.46,1.46,0,0,0,653.56,13.47Zm-.92,4.44a1.44,1.44,0,1,0,1.71-1.12A1.46,1.46,0,0,0,652.64,17.91Zm-.91,4.43a1.46,1.46,0,0,0,1.12,1.7,1.44,1.44,0,1,0-1.12-1.7Zm-.91,4.42a1.44,1.44,0,1,0,1.72-1.09A1.45,1.45,0,0,0,650.82,26.76Zm-.92,4.45a1.44,1.44,0,1,0,1.66-1.12A1.46,1.46,0,0,0,649.9,31.21Zm2.9,4.31a1.37,1.37,0,1,0-1.07-1.63A1.34,1.34,0,0,0,652.8,35.52ZM655.32,30a1.37,1.37,0,0,0-2.68-.59,1.37,1.37,0,0,0,2.68.59Zm-.89,2.12A1.34,1.34,0,1,0,656,31.1,1.36,1.36,0,0,0,654.43,32.16Zm2.82,4.17a1.27,1.27,0,1,0-1-1.52A1.24,1.24,0,0,0,657.25,36.33Zm2.4-5.4a1.27,1.27,0,1,0-1.48,1A1.25,1.25,0,0,0,659.65,30.93Zm.27,3.6a1.23,1.23,0,1,0-.94-1.46A1.26,1.26,0,0,0,659.92,34.53Zm1.76,2.6a1.15,1.15,0,1,0-.87-1.36A1.13,1.13,0,0,0,661.68,37.13Zm2.3-5.28a1.16,1.16,0,1,0-1.43.84A1.13,1.13,0,0,0,664,31.85Zm.4,3.49a1.12,1.12,0,1,0-.85-1.34A1.16,1.16,0,0,0,664.38,35.34Zm1.77,2.59a1,1,0,0,0,1.23-.78,1,1,0,1,0-1.23.78Zm1.78,2.63a1,1,0,1,0-.74-1.21A1,1,0,0,0,667.93,40.56ZM670,35.38a1,1,0,0,0-.73-1.17,1,1,0,1,0,.73,1.17Zm-.09,2.3a.91.91,0,0,0,1.78.34A.93.93,0,0,0,671,37,.92.92,0,0,0,669.92,37.68Zm2.68-4.07a.91.91,0,0,0-.65-1.09.92.92,0,0,0-1.1.65.9.9,0,1,0,1.75.44Zm.91-4.39a.91.91,0,1,0-1.75-.48.91.91,0,0,0,1.75.48Zm-.19,7.65a.81.81,0,1,0-.62-1A.79.79,0,0,0,673.32,36.87Zm1.87-5a.79.79,0,0,0-.63-1,.77.77,0,0,0-.94.59.81.81,0,1,0,1.57.38Zm-.67,6.79a.73.73,0,0,0,.62.87.73.73,0,1,0-.62-.87ZM676,35a.73.73,0,0,0,.88-.59.74.74,0,0,0-1.45-.25A.69.69,0,0,0,676,35Zm.41,6.3a.85.85,0,0,0,.46.69.52.52,0,0,0,.73-.47c0-.27-.22-.55-.34-.82l-.27,0C676.79,40.9,676.45,41.1,676.42,41.33Zm1.35-3.75c.26,0,.55-.19.83-.3l.06-.26c-.2-.22-.38-.57-.62-.62a.91.91,0,0,0-.71.43A.52.52,0,0,0,677.77,37.58Zm.52,6.39a.74.74,0,0,0,.37.61c.17.07.45-.15.68-.24l0-.23c-.18-.18-.33-.46-.53-.5S678.3,43.83,678.29,44Zm1.28-3.82c.18.06.45-.16.68-.25,0-.07,0-.15,0-.23-.17-.17-.33-.46-.53-.49s-.56.21-.56.35A.77.77,0,0,0,679.57,40.15Zm.94-4.43c.17.05.44-.17.67-.28l0-.23c-.18-.17-.35-.45-.55-.47s-.54.24-.54.38A.73.73,0,0,0,680.51,35.72ZM681.34,24l.07-.26c-.2-.22-.38-.58-.62-.62a.88.88,0,0,0-.71.42.52.52,0,0,0,.42.76A2.25,2.25,0,0,0,681.34,24Zm-.76-11.13a.69.69,0,0,0,.86-.54.72.72,0,0,0-.58-.9.73.73,0,0,0-.28,1.44Zm-.61,3a.7.7,0,0,0-.87.59.69.69,0,0,0,.57.84.73.73,0,0,0,.88-.6A.71.71,0,0,0,680,15.86Zm-1.8-6.52a.78.78,0,0,0,.64.91.79.79,0,0,0,1-.64.8.8,0,0,0-.67-.95A.79.79,0,0,0,678.17,9.34Zm-.29,5.35a.81.81,0,1,0-.61-1A.79.79,0,0,0,677.88,14.69ZM675.42,11a.91.91,0,1,0,1.76.44.91.91,0,0,0-1.76-.44Zm-.7-3.41a1,1,0,1,0,.77,1.19A1,1,0,0,0,674.72,7.58Zm-2.18-.7a1,1,0,0,0,1.24-.78,1,1,0,0,0-2-.46A1,1,0,0,0,672.54,6.88Zm-1.69,3.24a1,1,0,1,0,1.2-.83A1,1,0,0,0,670.85,10.12ZM669,7.39a1.11,1.11,0,1,0,2.18.45,1.13,1.13,0,0,0-.84-1.29A1.14,1.14,0,0,0,669,7.39Zm-.91-1.3a1.16,1.16,0,1,0-.89-1.4A1.14,1.14,0,0,0,668.1,6.09Zm-3.63.35a1.23,1.23,0,1,0,1.47-.92A1.25,1.25,0,0,0,664.47,6.44Zm-1.81-2.62a1.27,1.27,0,0,0,2.48.5,1.27,1.27,0,1,0-2.48-.5Zm-2.74,1.69a1.34,1.34,0,1,0,1.61-1A1.37,1.37,0,0,0,659.92,5.51Zm-.78-1a1.37,1.37,0,1,0,.65-2.66,1.34,1.34,0,0,0-1.66,1A1.35,1.35,0,0,0,659.14,4.46Zm-3.75.11a1.44,1.44,0,1,0,2.81.61,1.44,1.44,0,0,0-2.81-.61Zm-.67-.92a1.46,1.46,0,0,0,1.76-1.17,1.47,1.47,0,0,0-2.89-.56A1.46,1.46,0,0,0,654.72,3.65Zm-.87,4.45a1.48,1.48,0,1,0-1.17-1.76A1.47,1.47,0,0,0,653.85,8.1Zm-.91,4.43a1.47,1.47,0,1,0-1.18-1.76A1.46,1.46,0,0,0,652.94,12.53ZM652,17a1.47,1.47,0,0,0,.63-2.88,1.47,1.47,0,0,0-1.78,1.16A1.46,1.46,0,0,0,652,17Zm-1,4.43a1.47,1.47,0,1,0-1.09-1.77A1.47,1.47,0,0,0,651,21.39Zm-.92,4.43a1.47,1.47,0,1,0,.67-2.87,1.47,1.47,0,0,0-.67,2.87Zm-.82,4.46a1.48,1.48,0,1,0-1.19-1.75A1.46,1.46,0,0,0,649.29,30.28Zm-.95,4.43a1.48,1.48,0,1,0-1.14-1.78A1.46,1.46,0,0,0,648.34,34.71Zm-.29,1.55A1.48,1.48,0,1,0,649.16,38,1.47,1.47,0,0,0,648.05,36.26Zm3.75,0a1.43,1.43,0,1,0-1.69,1.14A1.45,1.45,0,0,0,651.8,36.21Zm.7,1.08a1.37,1.37,0,1,0-.64,2.66,1.37,1.37,0,0,0,.64-2.66Zm3.64-.19a1.34,1.34,0,1,0-1.56,1.07A1.36,1.36,0,0,0,656.14,37.1Zm.73,1.19a1.27,1.27,0,1,0,1,1.49A1.24,1.24,0,0,0,656.87,38.29Zm3.6-.29A1.23,1.23,0,1,0,659,39,1.26,1.26,0,0,0,660.47,38Zm1.69,2.66a1.16,1.16,0,1,0-2.27-.43,1.16,1.16,0,0,0,2.27.43Zm1.71,2.69A1.13,1.13,0,0,0,663,42a1.15,1.15,0,0,0-1.3.83,1.16,1.16,0,0,0,.84,1.35A1.14,1.14,0,0,0,663.87,43.35Zm.91-4.42a1.14,1.14,0,0,0-.84-1.34,1.16,1.16,0,0,0-1.32.81,1.11,1.11,0,1,0,2.16.53Zm1.69,2.65a1,1,0,1,0-1.23.78A1,1,0,0,0,666.47,41.58Zm1.72,2.64A1,1,0,1,0,667,45,1,1,0,0,0,668.19,44.22Zm1,1.61a.9.9,0,1,0,.69,1.06A.9.9,0,0,0,669.18,45.83Zm.91-4.44a.9.9,0,1,0,.69,1.07A.91.91,0,0,0,670.09,41.39Zm1.75,2.77a.78.78,0,0,0-1,.61.81.81,0,1,0,1-.61Zm1.52-3.49a.79.79,0,0,0-.64-1,.81.81,0,0,0-.32,1.59A.78.78,0,0,0,673.36,40.67Zm.78,7.06a.73.73,0,0,0-1.44-.26.73.73,0,0,0,.59.88A.72.72,0,0,0,674.14,47.73ZM675,43.4a.73.73,0,0,0-.54-.93.73.73,0,0,0-.35,1.42A.69.69,0,0,0,675,43.4Zm.89,6.89c-.22-.21-.41-.55-.65-.58a.89.89,0,0,0-.69.46.53.53,0,0,0,.48.73c.26,0,.54-.22.82-.34Zm.76-4.33a.89.89,0,0,0-.45-.69.52.52,0,0,0-.74.46,2.18,2.18,0,0,0,.33.82l.26.05C676.3,46.39,676.65,46.2,676.68,46Zm.88,7c-.18-.18-.33-.47-.53-.5s-.56.21-.57.35a.74.74,0,0,0,.37.61c.17.07.45-.14.68-.23A1.55,1.55,0,0,1,677.56,53Zm.19-4c.18.06.45-.16.68-.26l0-.22c-.18-.18-.34-.46-.54-.49s-.55.22-.55.36A.75.75,0,0,0,677.75,49ZM679,55.71c0-.13-.16-.27-.26-.41-.14.1-.35.17-.39.29s.12.3.24.56C678.82,55.94,679,55.83,679,55.71Zm.71-5c-.22.2-.42.3-.44.42a.48.48,0,0,0,.25.4.47.47,0,0,0,.4-.25C680,51.17,679.84,51,679.73,50.71Zm1.3-3.84c-.21-.21-.32-.41-.44-.42a.46.46,0,0,0-.38.27c0,.11.14.34.26.38S680.76,47,681,46.87Zm.53-5c-.22.2-.42.3-.44.42s.15.28.24.42c.14-.08.36-.14.41-.27S681.67,42.12,681.56,41.84Zm.44-11c0-.17-.22-.55-.37-.55a.75.75,0,0,0-.6.37c-.06.18.16.45.25.68l.23,0C681.69,31.23,682,31.07,682,30.87Zm.68,7.09c0-.12-.11-.29-.23-.56-.21.21-.41.32-.42.44a.47.47,0,0,0,.27.39A.45.45,0,0,0,682.68,38Zm1.09-4.4c-.2-.21-.31-.41-.44-.42s-.27.17-.41.27c.1.13.17.35.3.38S683.51,33.68,683.77,33.56Zm.73-4.43c0-.13-.13-.29-.21-.44-.15.08-.37.13-.42.25s.08.31.17.58C684.27,29.34,684.48,29.25,684.5,29.13Zm1.09-4.39c-.18-.23-.27-.44-.39-.46s-.29.14-.44.22c.08.15.13.37.25.42S685.31,24.83,685.59,24.74Zm.92-4.46c-.19-.22-.29-.43-.42-.44s-.28.15-.42.24c.09.14.15.36.27.4S686.24,20.39,686.51,20.28Zm.56-5c-.22.18-.44.27-.46.39a.46.46,0,0,0,.23.41.48.48,0,0,0,.41-.22C687.3,15.7,687.17,15.51,687.07,15.24Zm-41.73,4.25-1.41-.38c.09-.4.19-.88.28-1.33l1.43.23ZM642.9,31.31,641.48,31c-.11.51-.2,1-.29,1.4l1.4.37Zm-2.35,4.21c-.09.44-.19.92-.27,1.34l1.4.37c.1-.48.21-1,.3-1.48Zm9.56-26.23a1.89,1.89,0,0,1,.46-2.22h0a1.72,1.72,0,0,1-1.9-.11c-.12.58-.23,1.14-.35,1.7a1.67,1.67,0,0,1,1.79.63h0Zm-6.3,17.59-1.42-.3c-.1.51-.2,1-.29,1.41l1.41.37Zm.92-4.44-1.42-.3c-.11.52-.2,1-.29,1.41l1.4.37C644.52,23.43,644.63,22.88,644.73,22.44Zm4.46-8.71a1.92,1.92,0,0,1,.46-2.22h0a1.7,1.7,0,0,1-1.89-.1l-.35,1.69a1.64,1.64,0,0,1,1.78.64h0ZM646.45,27a1.91,1.91,0,0,1,.46-2.23h0a1.7,1.7,0,0,1-1.9-.11c-.12.58-.23,1.14-.35,1.71a1.64,1.64,0,0,1,1.79.62h0Zm1.83-8.88a1.89,1.89,0,0,1,.46-2.22h0a1.72,1.72,0,0,1-1.9-.11c-.12.58-.23,1.14-.35,1.7a1.67,1.67,0,0,1,1.79.63h0Zm-3.66,17.76v0h0a1.9,1.9,0,0,1,.46-2.22h0a1.72,1.72,0,0,1-1.9-.1c-.12.58-.23,1.14-.35,1.7a1.63,1.63,0,0,1,1.79.63h0Zm.92-4.45a1.9,1.9,0,0,1,.45-2.22h0a1.7,1.7,0,0,1-1.89-.11c-.12.58-.24,1.14-.35,1.71a1.61,1.61,0,0,1,1.79.62h0Zm-1.83,8.87a1.9,1.9,0,0,1,.45-2.22h0a1.7,1.7,0,0,1-1.89-.11c-.12.58-.23,1.14-.35,1.71a1.61,1.61,0,0,1,1.79.62h0ZM651,4.86a1.93,1.93,0,0,1,.46-2.23h0a1.7,1.7,0,0,1-1.89-.1l-.35,1.69a1.66,1.66,0,0,1,1.78.63h0Zm-4.46,8.7-1.43-.22c-.09.44-.19.92-.28,1.34l1.4.38C646.36,14.55,646.46,14,646.56,13.56ZM651.94.42a1.21,1.21,0,0,1-.05-.18l-.17,0c.07.07.14.12.21.2h0Zm-4.47,8.71L646,8.92l-.27,1.32,1.4.38C647.27,10.11,647.38,9.58,647.47,9.13Zm.92-4.44L647,4.47c-.09.44-.2.93-.28,1.34l1.4.37C648.18,5.69,648.29,5.16,648.39,4.69ZM649.3.26,647.87,0l-.28,1.35,1.41.37C649.09,1.28,649.2.75,649.3.26Zm-1.93,22.35,0,0h0a1.92,1.92,0,0,1,.46-2.22h0a1.72,1.72,0,0,1-1.89-.11c-.12.58-.24,1.14-.35,1.71a1.6,1.6,0,0,1,1.78.62h0Zm-8.32-11.68.83.17c.06-.28.12-.55.18-.86l-.83-.17C639.17,10.37,639.11,10.64,639.05,10.93ZM640,6.49l.82.17c.06-.3.12-.57.18-.89l-.83-.12C640.09,6,640,6.22,640,6.49Zm.91-4.42.8.17c.07-.33.13-.61.19-.91l-.82-.12C641,1.52,640.94,1.79,640.89,2.07Zm1,10.72-1-.16c-.07.36-.15.71-.22,1.07l1,.21C641.78,13.53,641.85,13.16,641.93,12.79ZM639.64,40c-.09.44-.19.93-.28,1.33l.56.15.92-.12c.08-.39.16-.78.23-1.14Zm-1.5-24.6.82.17.18-.86-.83-.17C638.25,14.8,638.2,15.07,638.14,15.36Zm-.84,8.15h-.07v.35C637.26,23.73,637.28,23.62,637.3,23.51Zm-.07-3.78v.07l.82.17.18-.86-.83-.17Zm.29-11.57.49.14c0-.22.09-.43.14-.66l-.51,0C637.6,7.79,637.57,8,637.52,8.16Zm.75,22.38-1-.17v1.1l.82.17C638.12,31.27,638.19,30.91,638.27,30.54Zm5.49-26.62-1.06-.16c-.08.36-.15.7-.22,1.07l1,.21C643.61,4.64,643.68,4.27,643.76,3.92Zm-2.2,5.34,1.05.22c.08-.39.16-.75.23-1.11l-1.05-.21C641.71,8.55,641.64,8.89,641.56,9.26ZM637.23,35v.61c0-.2.09-.4.12-.58ZM641,17.24,640,17l-.23,1.1,1.06.21C640.86,18,640.94,17.61,641,17.24Zm-.91,4.43-1.05-.17c-.08.37-.15.71-.23,1.07l1,.21C639.94,22.43,640,22.07,640.1,21.67ZM637.23,41.9l.17,0-.17,0Zm2-15.8-1.07-.17c-.07.35-.14.69-.22,1l1.05.26C639,26.84,639.11,26.47,639.19,26.1Zm-.76-22.39.52.11c0-.21.08-.39.13-.63l-.54,0C638.5,3.36,638.47,3.52,638.43,3.71Zm8.11-1.63-1.27-.18c-.08.4-.17.81-.24,1.18l1.24.33C646.35,3,646.45,2.51,646.54,2.08ZM644.44.61c0-.21.09-.41.13-.61-.37,0-.73,0-1.09,0,0,.12-.05.24-.08.36Zm-.64,14.78-1.27-.19c-.08.41-.17.82-.24,1.19l1.23.33C643.61,16.28,643.71,15.83,643.8,15.39Zm-.92,4.44-1.27-.19c-.07.38-.16.78-.24,1.18l1.24.34C642.7,20.7,642.8,20.24,642.88,19.83ZM644.71,11l-1.27-.18c-.08.4-.16.81-.24,1.18l1.24.33C644.52,11.86,644.62,11.38,644.71,11Zm.92-4.43-1.27-.19c-.08.41-.17.82-.25,1.19l1.24.33C645.45,7.39,645.54,6.93,645.63,6.52Zm-5.49,26.61L638.87,33c-.08.38-.16.78-.24,1.18l1.23.33C640,34,640.05,33.55,640.14,33.13Zm.91-4.43-1.26-.19c-.09.42-.17.83-.25,1.18l1.24.33C640.88,29.56,641,29.1,641.05,28.7Zm.92-4.44-1.27-.18c-.09.42-.17.82-.24,1.18l1.24.33C641.79,25.15,641.88,24.69,642,24.26Zm-4.72-12.18h0v.07Zm.46,26.49,1.24.33c.09-.43.18-.88.28-1.33L638,37.39C637.87,37.78,637.79,38.19,637.71,38.57Z"/></svg>